<svg id="Capa_1" enable-background="new 0 0 510 510" height="512" viewBox="0 0 510 510" width="512" xmlns="http://www.w3.org/2000/svg"><g><g><path d="m510 255c0 39.858-9.145 77.58-25.451 111.183-41.308 85.128-128.575 122.817-229.549 122.817-140.833 0-230-93.167-230-234 0-88.02 19.597-165.625 87.427-211.45 40.698-27.495 89.761-43.55 142.573-43.55 140.833 0 255 114.167 255 255z" fill="#d6d0fc"/><path d="m342.193 409.597c-140.833 0-255-114.167-255-255 0-39.863 9.154-77.584 25.464-111.189-67.957 45.805-112.657 123.475-112.657 211.592 0 100.899 58.602 188.111 143.626 229.457l106.522 25.498c1.614.03 3.231.045 4.851.045 2.557 0 5.105-.038 7.643-.112l102.539-24.856c51.982-24.945 94.2-66.992 119.364-118.85-40.655 27.408-89.632 43.415-142.352 43.415z" fill="#c0bbf1"/></g><g><g><g><path d="m391.943 343.246s79.394-56.021 80.679-66.59l11.779-96.835c-25.007-3.298-48.559 12.534-54.947 36.935l-12.368 47.241-96.2 73.785z" fill="#eebd84"/></g></g><path d="m360.23 322.86 4.491-5.221c4.665-5.423 7.498-12.18 8.094-19.308l.342-4.083c.705-8.421-2.887-16.288-9.035-21.323-3.151-2.58-86.674 61.321-86.674 61.321l5.9 125.998 37.717 41.104c15.386-4.117 30.199-9.634 44.293-16.412l-29.707-88.241 121.765-93.393c8.445-6.477 13.926-16.081 15.207-26.647l.03-.246-68.533 51.891c-14.241 10.783-33.617 7.397-43.89-5.44z" fill="#e7955e"/><path d="m322.759 304.65 41.36-31.723c-3.151-2.58-6.97-4.419-11.229-5.204-9.45-1.743-19.196.6-26.82 6.448l-66.724 51.176c-26.787 20.546-39.119 54.836-31.552 87.736l34.848 96.794c23.984-.706 47.137-4.718 69.016-11.606l-40.451-105.885c-7.566-32.9 4.765-67.19 31.552-87.736z" fill="#e3834d"/><g><path d="m325.889 149.732c0 60.495-65.418 81.908-65.418 81.908s-60.527-25.681-60.527-86.176c0-18.479-2.444-35.89 6.558-51.16 20.467-34.72 53.969-58.376 53.969-58.376s61.041 43.103 68.671 98.337c.509 3.681-3.253 11.686-3.253 15.467z" fill="#95d6a4"/></g><g><path d="m275.191 192.744s-61.114-43.155-68.684-98.438c-9.002 15.271-15.488 32.677-15.488 51.157 0 60.495 69.451 109.536 69.451 109.536s69.451-49.041 69.451-109.536c0-3.747-.268-7.449-.768-11.099-20.466 34.72-53.962 58.38-53.962 58.38z" fill="#78c2a4"/></g><g><path d="m260.471 290.061c-4.143 0-7.5-3.358-7.5-7.5v-168.608c0-4.142 3.357-7.5 7.5-7.5s7.5 3.358 7.5 7.5v168.608c0 4.142-3.358 7.5-7.5 7.5z" fill="#66b394"/></g><g><path d="m260.471 209.864-38.243-38.243c-2.929-2.929-2.929-7.678 0-10.606 2.93-2.929 7.678-2.929 10.607 0l27.636 27.636 27.636-27.636c2.93-2.929 7.678-2.929 10.607 0s2.929 7.678 0 10.606z" fill="#66b394"/></g><g><path d="m266.795 454.919 15.41-41.835c7.567-32.9-4.764-67.19-31.552-87.736l-63.749-48.894-49.754 21.474-44.239-33.931-12.367-47.241c-4.024-15.37-14.86-27.334-28.577-33.265l7.94 103.195c.21.168 155.009 127.706 155.009 127.706z" fill="#eebd84"/></g><path d="m143.63 484.448c32.284 15.699 68.377 24.778 106.519 25.49l17.699-57.877-14.76-11.321c-15.161-11.628-20.902-31.822-14.127-49.687 5.624-14.829 2.687-31.547-7.657-43.571l-36.133-42.002c-8.921-10.37-8.02-21.405-8.437-23.392-.16-1.916-.094-3.803.17-5.635-1.273-.646-12.555-12.341-30.582-8.575-12.213 2.552-20.519 13.952-19.479 26.386l.341 4.067c.597 7.128 3.43 13.886 8.094 19.309l52.916 61.512-118.83-87.357c-8.448-6.48-13.933-16.087-15.219-26.656l-9.798-80.55c-8.636-4.283-18.573-6.11-28.75-4.768l11.779 96.835c1.286 10.569 6.771 20.176 15.219 26.656l121.753 93.384z" fill="#e7955e"/></g></g></svg>